<?xml version="1.0" encoding="utf-8"?>
<!-- Generator: Adobe Illustrator 21.0.0, SVG Export Plug-In . SVG Version: 6.00 Build 0)  -->
<svg version="1.1" id="Capa_1" xmlns="http://www.w3.org/2000/svg" xmlns:xlink="http://www.w3.org/1999/xlink" x="0px" y="0px"
	 viewBox="0 0 487 487" style="enable-background:new 0 0 487 487;" xml:space="preserve">
<style type="text/css">
	.st0{fill:#FFFFFF;}
	.st1{fill:#681D19;}
</style>
<rect class="st0" width="487" height="487"/>
<g>
	<path class="st1" d="M398.5,236.2l-98.8-57c-4.1-2.3-9.2-1-11.6,3.1c-2.3,4.1-1,9.2,3.1,11.6l71.4,41.2H92.7
		c-4.7,0-8.5,3.8-8.5,8.5c0,4.7,3.8,8.5,8.5,8.5h269.8l-71.4,41.2c-4.1,2.3-5.4,7.5-3.1,11.6c1.6,2.7,4.4,4.2,7.4,4.2
		c1.4,0,2.9-0.4,4.2-1.1l98.8-57c2.6-1.5,4.2-4.3,4.2-7.3C402.7,240.5,401.1,237.7,398.5,236.2z"/>
</g>
</svg>
